<svg width="25" height="24" viewBox="0 0 25 24" fill="none" xmlns="http://www.w3.org/2000/svg">
<path d="M12.1499 7.5C12.1499 8.24168 11.93 8.96671 11.5179 9.58339C11.1059 10.2001 10.5202 10.6807 9.83497 10.9646C9.14975 11.2484 8.39575 11.3226 7.66832 11.1779C6.94089 11.0333 6.2727 10.6761 5.74826 10.1517C5.22381 9.62721 4.86666 8.95902 4.72196 8.23159C4.57727 7.50416 4.65153 6.75016 4.93536 6.06494C5.21919 5.37972 5.69983 4.79405 6.31652 4.38199C6.9332 3.96994 7.65823 3.75 8.39991 3.75C9.39447 3.75 10.3483 4.14509 11.0515 4.84835C11.7548 5.55161 12.1499 6.50544 12.1499 7.5ZM17.3999 11.25C18.1416 11.25 18.8666 11.0301 19.4833 10.618C20.1 10.206 20.5806 9.62029 20.8644 8.93506C21.1483 8.24984 21.2225 7.49584 21.0778 6.76841C20.9331 6.04098 20.576 5.3728 20.0515 4.84835C19.5271 4.3239 18.8589 3.96675 18.1315 3.82206C17.4041 3.67736 16.6501 3.75162 15.9648 4.03545C15.2796 4.31928 14.6939 4.79993 14.2819 5.41661C13.8698 6.0333 13.6499 6.75832 13.6499 7.5C13.6499 8.49456 14.045 9.44839 14.7482 10.1517C15.4515 10.8549 16.4053 11.25 17.3999 11.25ZM8.39991 12.75C7.65823 12.75 6.9332 12.9699 6.31652 13.382C5.69983 13.794 5.21919 14.3797 4.93536 15.0649C4.65153 15.7502 4.57727 16.5042 4.72196 17.2316C4.86666 17.959 5.22381 18.6272 5.74826 19.1517C6.2727 19.6761 6.94089 20.0333 7.66832 20.1779C8.39575 20.3226 9.14975 20.2484 9.83497 19.9646C10.5202 19.6807 11.1059 19.2001 11.5179 18.5834C11.93 17.9667 12.1499 17.2417 12.1499 16.5C12.1499 15.5054 11.7548 14.5516 11.0515 13.8484C10.3483 13.1451 9.39447 12.75 8.39991 12.75Z" fill="#1974DA"/>
<path d="M18.1499 15.75H20.3999C20.5988 15.75 20.7896 15.829 20.9302 15.9697C21.0709 16.1103 21.1499 16.3011 21.1499 16.5C21.1499 16.6989 21.0709 16.8897 20.9302 17.0303C20.7896 17.171 20.5988 17.25 20.3999 17.25H18.1499V19.5C18.1499 19.6989 18.0709 19.8897 17.9302 20.0303C17.7896 20.171 17.5988 20.25 17.3999 20.25C17.201 20.25 17.0102 20.171 16.8696 20.0303C16.7289 19.8897 16.6499 19.6989 16.6499 19.5V17.25H14.3999C14.201 17.25 14.0102 17.171 13.8696 17.0303C13.7289 16.8897 13.6499 16.6989 13.6499 16.5C13.6499 16.3011 13.7289 16.1103 13.8696 15.9697C14.0102 15.829 14.201 15.75 14.3999 15.75H16.6499V13.5C16.6499 13.3011 16.7289 13.1103 16.8696 12.9697C17.0102 12.829 17.201 12.75 17.3999 12.75C17.5988 12.75 17.7896 12.829 17.9302 12.9697C18.0709 13.1103 18.1499 13.3011 18.1499 13.5V15.75Z" fill="#1FC583"/>
</svg>
