<svg width="21" height="21" viewBox="0 0 21 21" fill="none" xmlns="http://www.w3.org/2000/svg">
<g opacity="0.9">
<path opacity="0.9" d="M5.05005 19V7.975C5.05005 7.425 5.25005 6.95833 5.65005 6.575C6.05005 6.19167 6.52505 6 7.07505 6H18.05C18.6 6 19.071 6.19567 19.463 6.587C19.855 6.97833 20.0507 7.44933 20.05 8V15.175C20.05 15.4417 20 15.696 19.9 15.938C19.8 16.18 19.6583 16.3923 19.475 16.575L15.625 20.425C15.4417 20.6083 15.229 20.75 14.987 20.85C14.745 20.95 14.491 21 14.225 21H7.05005C6.50005 21 6.02938 20.8043 5.63805 20.413C5.24671 20.0217 5.05071 19.5507 5.05005 19ZM18.05 15H15.05C14.7667 15 14.5293 15.096 14.338 15.288C14.1467 15.48 14.0507 15.7173 14.05 16V19L18.05 15Z" fill="#0F74E6"/>
<path d="M0.0753058 5.25001C-0.0246942 4.70001 0.0836458 4.20435 0.400306 3.76301C0.716976 3.32168 1.15031 3.05068 1.70031 2.95001L12.5504 1.02501C13.1004 0.925013 13.5964 1.03335 14.0384 1.35001C14.4804 1.66668 14.751 2.10001 14.8504 2.65001L15.1004 4.00001H7.05031C5.95031 4.00001 5.00865 4.39168 4.22531 5.17501C3.44198 5.95835 3.05031 6.90001 3.05031 8.00001V17.55C2.78365 17.4 2.55465 17.2 2.36331 16.95C2.17198 16.7 2.05098 16.4167 2.00031 16.1L0.0753058 5.25001Z" fill="#1FC583"/>
</g>
</svg>
