<svg width="25" height="24" viewBox="0 0 25 24" fill="none" xmlns="http://www.w3.org/2000/svg">
<path d="M11.8747 2L12.3453 2.47059C13.0512 3.17647 13.4387 4.11303 13.4387 5.10496C13.4387 6.09689 13.0558 7.02883 12.3592 7.7301L8.78361 11.3057C8.59906 11.4902 8.49756 11.7347 8.49756 11.9977C8.49756 12.2607 8.59906 12.5098 8.78361 12.6943L13.4618 17.3725C14.3246 18.1984 15.6902 18.1845 16.5345 17.3403L14.0431 19.8316L11.8701 22L5.67403 15.8039C4.57138 14.7013 4.01775 13.2295 4.11002 11.6701C4.18845 10.3599 4.77438 9.10496 5.75247 8.12226L11.8747 2Z" fill="#0B69D2"/>
<path d="M11.8747 2L12.3453 2.47059C13.0512 3.17647 13.4387 4.11303 13.4387 5.10496C13.4387 6.09689 13.0558 7.02883 12.3592 7.7301L8.78361 11.3057C8.59906 11.4902 8.49756 11.7347 8.49756 11.9977C8.49756 12.2607 8.59906 12.5098 8.78361 12.6943L13.4618 17.3725C14.3246 18.1984 15.6902 18.1845 16.5345 17.3403L14.0431 19.8316L11.8701 22L5.67403 15.8039C4.57138 14.7013 4.01775 13.2295 4.11002 11.6701C4.18845 10.3599 4.77438 9.10496 5.75247 8.12226L11.8747 2Z" fill="#0375F3"/>
<path d="M15.4272 5.55704L18.0754 8.20526C19.0904 9.22025 19.6487 10.5674 19.6487 12.0069C19.6487 13.4417 19.0904 14.7889 18.0754 15.8039L16.5345 17.3448C15.6902 18.1891 14.32 18.2029 13.4618 17.3771L11.8748 15.79L14.9705 12.6943C15.155 12.5098 15.2565 12.2606 15.2565 12.0023C15.2565 11.7393 15.155 11.4901 14.9705 11.3056C14.2554 10.5905 13.8678 9.65393 13.8678 8.65739C13.8678 7.66085 14.2554 6.72429 14.9613 6.02302L15.4318 5.55243L15.4272 5.55704Z" fill="#1FC583"/>
<path d="M15.4272 5.55704L18.0754 8.20526C19.0904 9.22025 19.6487 10.5674 19.6487 12.0069C19.6487 13.4417 19.0904 14.7889 18.0754 15.8039L16.5345 17.3448C15.6902 18.1891 14.32 18.2029 13.4618 17.3771L11.8748 15.79L14.9705 12.6943C15.155 12.5098 15.2565 12.2606 15.2565 12.0023C15.2565 11.7393 15.155 11.4901 14.9705 11.3056C14.2554 10.5905 13.8678 9.65393 13.8678 8.65739C13.8678 7.66085 14.2554 6.72429 14.9613 6.02302L15.4318 5.55243L15.4272 5.55704Z" fill="#1FC583" fill-opacity="0.2"/>
<path d="M11.8724 9.79248L13.6895 11.6096C13.9048 11.8249 13.9048 12.1772 13.6895 12.3925L11.8724 14.2097L10.0553 12.3925C9.83997 12.1772 9.83997 11.8249 10.0553 11.6096L11.8724 9.79248Z" fill="#0375F3"/>
</svg>
