<svg width="25" height="24" viewBox="0 0 25 24" fill="none" xmlns="http://www.w3.org/2000/svg">
<path d="M18.45 2.00098C19.0201 2.00091 19.569 2.21727 19.9857 2.60635C20.4025 2.99542 20.656 3.52819 20.695 4.09698L20.7 4.24998V14.378C20.5793 14.458 20.4656 14.5513 20.359 14.658L16.95 18.066L16.042 17.156C15.6428 16.7555 15.107 16.5208 14.542 16.499H16.95C17.1489 16.499 17.3397 16.42 17.4803 16.2793C17.621 16.1387 17.7 15.9479 17.7 15.749C17.7 15.5501 17.621 15.3593 17.4803 15.2186C17.3397 15.078 17.1489 14.999 16.95 14.999H11.946C11.7471 14.999 11.5563 15.078 11.4157 15.2186C11.275 15.3593 11.196 15.5501 11.196 15.749C11.196 15.9479 11.275 16.1387 11.4157 16.2793C11.5563 16.42 11.7471 16.499 11.946 16.499H14.359C13.9221 16.5167 13.4999 16.6613 13.1439 16.9151C12.7879 17.169 12.5135 17.521 12.3544 17.9283C12.1953 18.3355 12.1583 18.7803 12.2479 19.2083C12.3375 19.6362 12.5498 20.0288 12.859 20.338L14.518 21.998H6.94995C6.37983 21.998 5.83093 21.7817 5.4142 21.3926C4.99747 21.0035 4.74397 20.4708 4.70495 19.902L4.69995 19.75V4.25098C4.69988 3.68085 4.91625 3.13196 5.30532 2.71522C5.69439 2.29849 6.22716 2.045 6.79595 2.00598L6.94995 2.00098H18.45ZM9.69995 7.75098C9.69995 7.48576 9.59459 7.23141 9.40706 7.04387C9.21952 6.85633 8.96517 6.75098 8.69995 6.75098C8.43474 6.75098 8.18038 6.85633 7.99285 7.04387C7.80531 7.23141 7.69995 7.48576 7.69995 7.75098C7.69995 8.01619 7.80531 8.27055 7.99285 8.45808C8.18038 8.64562 8.43474 8.75098 8.69995 8.75098C8.96517 8.75098 9.21952 8.64562 9.40706 8.45808C9.59459 8.27055 9.69995 8.01619 9.69995 7.75098ZM11.946 6.99998C11.7471 6.99998 11.5563 7.07899 11.4157 7.21965C11.275 7.3603 11.196 7.55106 11.196 7.74998C11.196 7.94889 11.275 8.13965 11.4157 8.28031C11.5563 8.42096 11.7471 8.49998 11.946 8.49998H16.95C17.1489 8.49998 17.3397 8.42096 17.4803 8.28031C17.621 8.13965 17.7 7.94889 17.7 7.74998C17.7 7.55106 17.621 7.3603 17.4803 7.21965C17.3397 7.07899 17.1489 6.99998 16.95 6.99998H11.946ZM11.196 11.75C11.196 12.164 11.532 12.5 11.946 12.5H16.95C17.0485 12.5 17.146 12.4806 17.237 12.4429C17.328 12.4052 17.4107 12.35 17.4803 12.2803C17.55 12.2107 17.6052 12.128 17.6429 12.037C17.6806 11.946 17.7 11.8485 17.7 11.75C17.7 11.6515 17.6806 11.554 17.6429 11.463C17.6052 11.372 17.55 11.2893 17.4803 11.2196C17.4107 11.15 17.328 11.0948 17.237 11.0571C17.146 11.0194 17.0485 11 16.95 11H11.946C11.7471 11 11.5563 11.079 11.4157 11.2196C11.275 11.3603 11.196 11.5511 11.196 11.75ZM9.69995 11.75C9.69995 11.4848 9.59459 11.2304 9.40706 11.0429C9.21952 10.8553 8.96517 10.75 8.69995 10.75C8.43474 10.75 8.18038 10.8553 7.99285 11.0429C7.80531 11.2304 7.69995 11.4848 7.69995 11.75C7.69995 12.0152 7.80531 12.2695 7.99285 12.4571C8.18038 12.6446 8.43474 12.75 8.69995 12.75C8.96517 12.75 9.21952 12.6446 9.40706 12.4571C9.59459 12.2695 9.69995 12.0152 9.69995 11.75ZM9.69995 15.748C9.69995 15.4828 9.59459 15.2284 9.40706 15.0409C9.21952 14.8533 8.96517 14.748 8.69995 14.748C8.43474 14.748 8.18038 14.8533 7.99285 15.0409C7.80531 15.2284 7.69995 15.4828 7.69995 15.748C7.69995 16.0132 7.80531 16.2675 7.99285 16.4551C8.18038 16.6426 8.43474 16.748 8.69995 16.748C8.96517 16.748 9.21952 16.6426 9.40706 16.4551C9.59459 16.2675 9.69995 16.0132 9.69995 15.748Z" fill="url(#paint0_linear_471_17)"/>
<path d="M16.95 20.189L21.42 15.719C21.4892 15.6474 21.572 15.5903 21.6635 15.551C21.755 15.5118 21.8534 15.4911 21.953 15.4903C22.0526 15.4895 22.1514 15.5085 22.2435 15.5463C22.3357 15.584 22.4194 15.6398 22.4898 15.7102C22.5602 15.7807 22.6158 15.8644 22.6535 15.9566C22.6911 16.0488 22.7101 16.1476 22.7092 16.2472C22.7083 16.3467 22.6875 16.4452 22.6482 16.5366C22.6088 16.6281 22.5516 16.7109 22.48 16.78L17.48 21.78L17.429 21.827C17.2851 21.9465 17.1017 22.008 16.9149 21.9993C16.728 21.9906 16.5511 21.9124 16.419 21.78L13.919 19.279C13.7784 19.1382 13.6996 18.9473 13.6997 18.7483C13.6999 18.5493 13.7791 18.3586 13.92 18.218C14.0608 18.0774 14.2517 17.9986 14.4507 17.9988C14.6497 17.999 14.8404 18.0782 14.981 18.219L16.95 20.189Z" fill="url(#paint1_linear_471_17)"/>
<defs>
<linearGradient id="paint0_linear_471_17" x1="12.4557" y1="2.00098" x2="12.4557" y2="21.998" gradientUnits="userSpaceOnUse">
<stop stop-color="#0375F3"/>
<stop offset="1" stop-color="#0B69D2"/>
</linearGradient>
<linearGradient id="paint1_linear_471_17" x1="22.2993" y1="16.0001" x2="14.1358" y2="16.7735" gradientUnits="userSpaceOnUse">
<stop stop-color="#1FC583"/>
<stop offset="1" stop-color="#1F9285"/>
</linearGradient>
</defs>
</svg>
